<svg width="500" height="260" viewBox="0 0 500 260" fill="none" xmlns="http://www.w3.org/2000/svg">
<path d="M248.719 209.789C196.103 209.789 153.415 221.084 153.415 234.839C153.415 248.705 196.103 260 248.719 260C295.599 260 334.647 251.054 342.589 239.312C343.582 237.858 344.023 236.404 344.023 234.95C344.023 221.084 301.335 209.789 248.719 209.789ZM248.719 238.417C218.385 238.417 193.897 234.727 193.897 230.142C193.897 230.142 193.897 230.03 193.897 229.806C193.897 229.694 193.897 229.694 194.007 229.583C194.007 229.583 194.007 229.471 194.118 229.471C196.214 225.221 219.929 221.866 248.719 221.866C276.516 221.866 299.459 224.998 302.989 229.023C303.32 229.359 303.43 229.694 303.43 230.03V230.142C303.541 234.727 278.943 238.417 248.719 238.417Z" fill="#739FE0"/>
<path d="M134.442 217.729H42.6681C40.3517 217.729 38.0352 218.512 36.16 219.966L0.862308 248.035C-0.792273 249.377 0.0901752 252.061 2.18598 252.061H99.1444C101.571 252.061 103.998 251.054 105.763 249.377L135.435 220.302C136.428 219.407 135.766 217.729 134.442 217.729Z" fill="#739FE0"/>
<path d="M498.56 217.729H406.676C404.359 217.729 402.043 218.512 400.168 219.966L364.87 248.035C363.216 249.377 364.098 252.061 366.194 252.061H463.152C465.579 252.061 468.006 251.054 469.771 249.377L499.443 220.302C500.546 219.407 499.884 217.729 498.56 217.729Z" fill="#739FE0"/>
<path d="M248.719 205.204C196.103 205.204 153.415 216.499 153.415 230.254C153.415 244.12 196.103 255.415 248.719 255.415C295.599 255.415 334.647 246.469 342.589 234.727C343.582 233.273 344.023 231.819 344.023 230.365C344.023 216.499 301.335 205.204 248.719 205.204ZM248.719 233.832C218.385 233.832 193.897 230.142 193.897 225.557C193.897 225.557 193.897 225.445 193.897 225.221C193.897 225.11 193.897 225.11 194.007 224.998C194.007 224.998 194.007 224.886 194.118 224.886C196.214 220.636 219.929 217.282 248.719 217.282C276.516 217.282 299.459 220.413 302.989 224.439C303.32 224.774 303.43 225.11 303.43 225.445V225.557C303.541 230.142 278.943 233.832 248.719 233.832Z" fill="#00A3FF"/>
<path d="M342.589 234.727C334.647 246.468 295.709 255.415 248.719 255.415C196.103 255.415 153.415 244.12 153.415 230.253C153.415 230.253 169.961 250.494 245.41 250.494C310.269 250.606 336.412 238.193 342.589 234.727Z" fill="#015CCC"/>
<path d="M302.989 224.438C299.349 220.412 276.406 217.281 248.719 217.281C219.819 217.281 196.213 220.636 194.118 224.885C195.11 222.425 201.729 213.927 248.719 213.927C291.959 213.927 301.114 221.531 302.989 224.438Z" fill="#015CCC"/>
<path d="M135.214 217.729L115.911 77.7205C115.69 76.2667 114.477 75.1484 112.932 75.1484H86.9002C85.1353 75.1484 83.7014 76.714 83.922 78.6151L90.43 131.51C90.6506 133.634 89.1063 135.424 87.0105 135.424H57.2281C55.3529 135.424 53.8086 133.97 53.6983 132.069L51.2716 78.1678C51.1613 76.4904 49.8376 75.2603 48.2933 75.2603H23.9158C22.1509 75.2603 20.8273 76.714 20.9376 78.3914L24.2467 170.538C24.357 173.445 26.7838 175.794 29.6517 175.794H95.9453L101.13 217.953H135.214V217.729Z" fill="#273D7A"/>
<path d="M499.333 217.729L480.029 77.7205C479.809 76.2667 478.595 75.1484 477.051 75.1484H451.019C449.254 75.1484 447.82 76.714 448.041 78.6151L454.549 131.51C454.769 133.634 453.225 135.424 451.129 135.424H421.347C419.472 135.424 417.927 133.97 417.817 132.069L415.39 78.1678C415.28 76.4904 413.956 75.2603 412.412 75.2603H388.145C386.38 75.2603 385.056 76.714 385.167 78.3914L388.476 170.538C388.586 173.445 391.013 175.794 393.881 175.794H460.174L465.359 217.953H499.333V217.729Z" fill="#273D7A"/>
<path d="M115.138 79.1748L100.578 246.47C100.357 249.601 97.7101 252.061 94.6215 252.061H72.781C69.141 252.061 66.3833 248.818 66.8245 245.24L75.9799 166.848L10.5688 167.966C6.92869 167.966 4.17105 164.723 4.83288 161.145L5.0535 159.691L20.055 78.1684C20.4963 75.9318 22.3714 74.2544 24.6879 74.2544H45.5356C48.4035 74.2544 50.6096 76.9383 50.1684 79.8458L41.2337 131.287C40.9028 133.411 42.447 135.201 44.5428 135.201H75.7593L83.0394 78.0566C83.3704 75.82 85.2456 74.1426 87.4517 74.1426H110.726C113.263 74.2544 115.359 76.6028 115.138 79.1748Z" fill="#00A3FF"/>
<path d="M76.4216 159.691L75.87 166.847L10.4589 167.966C6.81883 167.966 4.06118 164.723 4.72302 161.145L4.94363 159.691H76.4216Z" fill="#015CCC"/>
<path d="M115.138 79.1753L100.578 246.47C100.358 249.601 97.7102 252.061 94.6217 252.061H91.3125L108.63 74.2549H110.726C113.263 74.2549 115.359 76.6033 115.138 79.1753Z" fill="#015CCC"/>
<path d="M41.1239 131.399C40.793 133.523 42.3373 135.313 44.4331 135.313H38.0354C35.7189 135.313 33.8437 133.188 34.285 130.839L44.1021 74.3662H45.5361C48.4041 74.3662 50.6102 77.0501 50.1689 79.9576L41.1239 131.399Z" fill="#015CCC"/>
<path d="M479.147 79.1748L464.586 246.47C464.366 249.601 461.718 252.061 458.63 252.061H436.789C433.149 252.061 430.392 248.818 430.833 245.24L439.988 166.848L374.577 167.966C370.937 167.966 368.179 164.723 368.841 161.145L369.062 159.691L384.063 78.1684C384.505 75.9318 386.38 74.2544 388.696 74.2544H409.544C412.412 74.2544 414.618 76.9383 414.177 79.8458L405.242 131.287C404.911 133.411 406.455 135.201 408.551 135.201H439.768L447.048 78.0566C447.379 75.82 449.254 74.1426 451.46 74.1426H474.734C477.382 74.2544 479.477 76.6028 479.147 79.1748Z" fill="#00A3FF"/>
<path d="M440.54 159.691L439.988 166.847L374.577 167.966C370.937 167.966 368.179 164.723 368.841 161.145L369.062 159.691H440.54Z" fill="#015CCC"/>
<path d="M479.146 79.1753L464.586 246.47C464.365 249.601 461.718 252.061 458.629 252.061H455.32L472.638 74.2549H474.734C477.381 74.2549 479.477 76.6033 479.146 79.1753Z" fill="#015CCC"/>
<path d="M405.242 131.399C404.911 133.523 406.455 135.313 408.551 135.313H402.153C399.837 135.313 397.961 133.188 398.403 130.839L408.22 74.3662H409.654C412.522 74.3662 414.728 77.0501 414.287 79.9576L405.242 131.399Z" fill="#015CCC"/>
<path opacity="0.28" d="M205.148 113.282L182.535 229.584C181.322 235.846 185.293 241.773 190.698 241.773H310.49C315.784 241.773 319.755 236.07 318.763 230.031L300.231 113.73C299.459 109.033 296.04 105.678 291.958 105.678H213.421C209.45 105.566 206.03 108.809 205.148 113.282Z" fill="#00A3FF"/>
<path d="M307.291 120.551L318.211 157.342C318.432 158.125 319.204 158.572 319.976 158.237C320.528 158.013 320.969 157.342 320.748 156.671L313.578 118.985C313.137 116.972 310.931 115.854 309.056 116.637C307.622 117.308 306.85 118.873 307.291 120.551Z" fill="#FEC272"/>
<path d="M286.664 133.859L293.723 162.263C293.834 162.822 294.385 163.046 294.826 162.934C295.268 162.822 295.488 162.375 295.378 161.927L290.855 132.964C290.635 131.622 289.201 130.727 287.877 131.286C286.995 131.734 286.443 132.74 286.664 133.859Z" fill="#FEC272"/>
<path d="M194.669 124.129L185.514 152.422C185.403 152.981 184.742 153.204 184.3 152.981C183.859 152.757 183.639 152.31 183.749 151.862L190.367 122.899C190.698 121.557 192.242 120.774 193.456 121.333C194.559 121.893 195 123.011 194.669 124.129Z" fill="#FEC272"/>
<path d="M212.87 132.852L200.957 185.411C200.846 185.97 200.295 186.194 199.854 186.082C199.412 185.97 199.192 185.523 199.302 185.075L208.678 131.957C208.899 130.615 210.333 129.72 211.656 130.28C212.649 130.615 213.201 131.733 212.87 132.852Z" fill="#FEC272"/>
<path d="M238.129 139.002L232.393 177.136C232.283 177.695 231.731 178.03 231.29 177.807C230.849 177.695 230.628 177.248 230.628 176.8L233.717 138.331C233.938 136.989 235.261 136.095 236.585 136.542C237.688 136.766 238.35 137.884 238.129 139.002Z" fill="#FEC272"/>
<path d="M267.692 138.22L269.126 198.719C269.126 199.278 268.684 199.613 268.133 199.613C267.692 199.502 267.361 199.166 267.361 198.719L263.279 138.22C263.279 136.766 264.493 135.76 265.816 135.983C266.919 136.207 267.692 137.213 267.692 138.22Z" fill="#FEC272"/>
<path d="M153.084 83.3118C151.87 81.8581 150.988 80.4043 150.326 78.9505L147.789 61.729L153.635 67.2086L153.084 83.3118Z" fill="#739FE0"/>
<path d="M317.66 89.1274C317.66 89.1274 314.02 96.8436 306.078 105.454C296.15 116.19 279.384 128.379 254.455 128.379C236.916 128.379 223.9 122.452 214.635 115.295C200.074 104.112 194.338 89.7984 194.338 89.7984L317.66 89.1274Z" fill="#273D7A"/>
<path d="M317.66 89.1274C317.66 89.1274 314.02 96.8436 306.078 105.454C297.584 108.809 287.105 111.605 274.089 113.394C248.498 116.861 228.533 116.637 214.635 115.295C200.074 104.112 194.338 89.7984 194.338 89.7984L317.66 89.1274Z" fill="#072359"/>
<path d="M356.488 61.0583C356.488 61.0583 355.826 68.1035 353.62 76.8261C353.289 78.0562 352.737 79.5099 351.855 80.8519C349.538 84.654 345.126 88.7916 337.956 92.7056C336.743 93.3766 335.309 94.0476 333.875 94.7186C332.772 95.2777 331.669 95.725 330.456 96.2841C328.801 96.9551 327.146 97.6261 325.381 98.297C319.204 100.534 311.924 102.435 303.32 104.224C302.659 104.336 302.107 104.448 301.445 104.559C299.791 104.895 297.805 105.119 295.709 105.342C286.885 106.349 275.192 107.02 262.728 107.243C260.412 107.243 258.095 107.355 255.779 107.355C243.976 107.467 232.063 107.131 221.694 106.572C219.488 106.461 217.282 106.349 215.297 106.125C209.23 105.678 203.935 105.007 200.074 104.224C194.449 103.106 189.375 101.876 184.852 100.534C182.977 99.9745 181.212 99.4153 179.447 98.8562C165.769 94.2712 157.497 88.6798 153.195 83.5357C152.533 82.753 151.981 82.082 151.54 81.2992C151.099 80.6282 150.658 79.8454 150.437 79.1744C150.106 78.3916 149.775 77.7207 149.665 76.9379C148.672 72.8002 147.9 68.5508 147.569 65.3078C147.128 61.6174 147.018 59.1572 147.018 59.1572L251.808 67.097L356.598 61.1701L356.488 61.0583Z" fill="#739FE0"/>
<path d="M356.377 60.8347C356.377 61.6175 355.826 62.624 354.833 63.8541C352.075 67.0971 345.457 71.9057 334.206 76.267C332.772 76.8261 331.228 77.3853 329.573 77.9444C328.801 78.1681 328.029 78.5036 327.257 78.7272C325.602 79.2864 323.837 79.8455 321.962 80.2928C315.674 82.0821 308.394 83.7595 300.011 84.9896C298.026 85.3251 295.93 85.6606 293.724 85.8842C284.458 87.1143 274.089 87.8971 262.507 88.1208C260.301 88.1208 257.985 88.2326 255.668 88.2326H255.558C243.755 88.2326 232.835 87.6735 223.018 86.7788C220.812 86.5552 218.606 86.3315 216.51 86.1079C205.7 84.8778 196.103 83.0885 187.831 81.0756C185.955 80.6283 184.08 80.0692 182.315 79.6218C165.88 75.0369 155.07 69.3337 150.106 64.6369C149.113 63.7423 148.341 62.7358 147.79 61.953C147.128 60.9466 146.797 60.0519 146.797 59.1573C146.797 51.2175 177.682 34.3315 256.11 34.3315C334.537 34.2197 356.377 55.3552 356.377 60.8347Z" fill="#273D7A"/>
<path d="M210.884 43.3893L153.525 67.2086C151.319 65.7549 148.23 62.6237 147.679 61.7291L209.008 42.3828L210.884 43.3893Z" fill="#072359"/>
<path d="M356.377 60.9463C356.377 61.6172 355.825 62.6237 354.832 63.8538L295.929 43.3893L297.804 42.4946L356.377 60.9463Z" fill="#072359"/>
<path d="M220.591 49.54L187.83 80.9637C185.955 80.5164 184.08 79.9573 182.315 79.51L218.605 49.4282L220.591 49.54Z" fill="#072359"/>
<path d="M238.571 53.23L223.018 86.7784C220.812 86.5548 218.606 86.3311 216.51 86.1074L236.585 53.1182L238.571 53.23Z" fill="#072359"/>
<path d="M300.122 85.101C298.136 85.4365 295.93 85.7719 293.834 85.9956L278.612 53.23L280.708 53.1182L300.122 85.101Z" fill="#072359"/>
<path d="M262.507 88.2329C260.301 88.2329 257.984 88.3447 255.668 88.3447H255.558L258.205 55.3555L260.301 55.2437L262.507 88.2329Z" fill="#072359"/>
<path d="M334.095 76.267C332.661 76.8261 331.117 77.3852 329.462 77.9444L289.863 49.54L291.959 49.4282L334.095 76.267Z" fill="#072359"/>
<path d="M262.617 107.018C260.301 107.018 257.984 107.13 255.668 107.13V88.2324L262.507 88.1206L262.617 107.018Z" fill="#739FE0"/>
<path d="M301.224 104.335C299.46 104.67 297.584 104.894 295.489 105.118L293.724 85.8843L300.011 84.9897L301.224 104.335Z" fill="#739FE0"/>
<path d="M337.846 92.593C336.632 93.2639 335.198 93.9348 333.764 94.6058L329.573 77.8326L334.095 76.2671L337.846 92.593Z" fill="#739FE0"/>
<path d="M223.018 86.7793L221.694 106.348C219.488 106.236 217.282 106.124 215.296 105.901L216.62 86.1084L223.018 86.7793Z" fill="#739FE0"/>
<path d="M187.83 80.9639L184.742 100.309C182.867 99.7499 181.102 99.1908 179.337 98.6317L182.205 79.5103L187.83 80.9639Z" fill="#739FE0"/>
<path d="M153.636 67.4324L151.429 81.1864C150.988 80.5155 150.547 79.7327 150.326 79.0618C149.996 78.2791 149.665 77.6081 149.554 76.8254C148.562 72.688 147.789 68.4388 147.458 65.196L147.789 61.8413C147.789 61.8413 149.665 64.0777 150.437 64.8605C151.099 65.5314 153.636 67.4324 153.636 67.4324Z" fill="#739FE0"/>
<path d="M250.925 68.6627C283.395 68.6627 309.718 61.1025 309.718 51.7766C309.718 42.4507 283.395 34.8906 250.925 34.8906C218.455 34.8906 192.132 42.4507 192.132 51.7766C192.132 61.1025 218.455 68.6627 250.925 68.6627Z" fill="#072359"/>
<path d="M304.644 49.0925C304.644 49.0925 300.342 54.013 289.753 58.2624C281.921 61.3936 270.67 64.0775 255.227 64.0775C246.733 64.0775 239.343 63.2947 233.166 62.0646C212.539 58.0388 203.604 49.3162 203.604 49.3162C203.604 49.3162 208.127 15.3205 236.365 3.80216C242.101 1.45377 248.94 0 256.882 0C295.709 0 304.644 49.0925 304.644 49.0925Z" fill="#739FE0"/>
<path d="M233.166 62.0642C212.539 58.0384 203.604 49.3158 203.604 49.3158C203.604 49.3158 208.127 15.32 236.365 3.80176C230.849 8.49854 225.444 17.8921 224.562 33.2125C223.68 44.619 226.327 54.1244 233.166 62.0642Z" fill="#739FE0"/>
<path d="M304.644 49.0925C304.644 49.0925 300.342 54.0129 289.753 58.2624C288.098 52 285.561 46.4086 285.561 46.4086C285.561 46.4086 275.192 48.6452 270.559 38.6925C265.927 28.7398 277.067 21.5828 277.067 21.5828C277.067 21.5828 274.42 12.9721 260.742 7.38066C247.064 1.78926 236.144 3.80216 236.144 3.80216C241.88 1.45377 248.719 0 256.661 0C295.709 0 304.644 49.0925 304.644 49.0925Z" fill="#C2D1FF"/>
<path d="M260.191 28.0681C261.835 28.0681 263.169 26.7665 263.169 25.1608C263.169 23.5551 261.835 22.2534 260.191 22.2534C258.546 22.2534 257.212 23.5551 257.212 25.1608C257.212 26.7665 258.546 28.0681 260.191 28.0681Z" fill="#C2D1FF"/>
<path d="M249.822 30.8644C251.101 30.8644 252.138 29.8632 252.138 28.628C252.138 27.3929 251.101 26.3916 249.822 26.3916C248.542 26.3916 247.505 27.3929 247.505 28.628C247.505 29.8632 248.542 30.8644 249.822 30.8644Z" fill="#C2D1FF"/>
<path d="M256.771 45.9608C259.269 45.9608 261.294 43.9583 261.294 41.488C261.294 39.0177 259.269 37.0151 256.771 37.0151C254.273 37.0151 252.249 39.0177 252.249 41.488C252.249 43.9583 254.273 45.9608 256.771 45.9608Z" fill="#C2D1FF"/>
</svg>
