<svg width="24" height="24" viewBox="0 0 24 24" fill="none" xmlns="http://www.w3.org/2000/svg">
<path d="M19 11H5C3.89543 11 3 11.8954 3 13V20C3 21.1046 3.89543 22 5 22H19C20.1046 22 21 21.1046 21 20V13C21 11.8954 20.1046 11 19 11Z" stroke="url(#paint0_linear_95_58)" stroke-width="2" stroke-linecap="round" stroke-linejoin="round"/>
<path d="M7 11V7C7 5.67392 7.52678 4.40215 8.46447 3.46447C9.40215 2.52678 10.6739 2 12 2C13.3261 2 14.5979 2.52678 15.5355 3.46447C16.4732 4.40215 17 5.67392 17 7V11" stroke="url(#paint1_linear_95_58)" stroke-width="2" stroke-linecap="round" stroke-linejoin="round"/>
<defs>
<linearGradient id="paint0_linear_95_58" x1="19.9071" y1="11.3929" x2="11.4402" y2="25.8648" gradientUnits="userSpaceOnUse">
<stop offset="0.0001" stop-color="#00A3FF"/>
<stop offset="1" stop-color="#0054C6"/>
</linearGradient>
<linearGradient id="paint1_linear_95_58" x1="16.3929" y1="2.32143" x2="8.53336" y2="11.4431" gradientUnits="userSpaceOnUse">
<stop offset="0.0001" stop-color="#00A3FF"/>
<stop offset="1" stop-color="#0054C6"/>
</linearGradient>
</defs>
</svg>
