<svg width="40" height="46" viewBox="0 0 40 46" fill="none" xmlns="http://www.w3.org/2000/svg">
<g clip-path="url(#clip0_95_42)">
<path d="M20.0271 11.7393L29.3367 17.353L20.0271 22.6741L10.2969 17.353L20.0271 11.7393Z" fill="url(#paint0_linear_95_42)"/>
<path d="M10.2969 17.5542L20.0271 22.8571L19.9722 33.6822L10.2969 28.5622V17.5542Z" fill="url(#paint1_linear_95_42)"/>
<path d="M20.0273 22.8571L29.4466 17.5542L29.721 28.5622L20.1554 33.8833L20.0273 22.8571Z" fill="url(#paint2_linear_95_42)"/>
<path d="M39.3777 11.0629L39.2314 10.9714L29.9401 5.65029L20.2099 0.0731429L20.0819 0L19.9721 0.0548571C19.7894 0.120116 19.6121 0.199597 19.4417 0.292571L10.9552 5.248L0.456828 11.392C0.0178704 11.5931 0.0361604 12.0503 0.0361604 12.3246V12.5257L0.0178705 28.1051L-0.000419426 33.8834C-0.0187093 34.2309 0.12761 34.5417 0.383668 34.6514L12.455 41.5086L19.5881 45.568C19.7344 45.6594 19.899 45.7143 20.0453 45.7143C20.1705 45.7199 20.2936 45.681 20.3928 45.6046L30.7083 39.6617L39.4875 34.6149C39.8167 34.4686 40.0179 34.1394 39.963 33.8286L39.9996 11.9406C40.0544 11.4286 39.6338 11.1909 39.3777 11.0629ZM20.0087 12.4526L28.5135 17.3897L20.027 22.272L17.1372 20.6446L11.4308 17.408L20.0087 12.4526ZM29.6658 16.7131L20.4477 11.3554C20.3264 11.2662 20.1805 11.2165 20.0299 11.2132C19.8793 11.21 19.7314 11.2532 19.6063 11.3371L10.2785 16.7497L1.79199 11.9406L7.71792 8.48457L20.027 1.29829L31.3485 7.78972L38.262 11.7577L29.6658 16.7131ZM1.20671 12.9463L9.65664 17.7371L9.82125 28.2697C9.80296 28.5989 9.96757 28.8914 10.2236 29.0194L15.8386 32.2377L19.4417 34.304V44.16L1.17013 33.7737L1.20671 12.9463ZM10.8272 18.3954L19.46 23.2777L19.4417 32.9691L10.9918 28.1234L10.8272 18.3954ZM20.6123 34.3223L24.2154 32.2377L29.7755 29.056L29.8304 29.0194C29.9401 28.9646 30.0682 28.8731 30.1596 28.7451L30.2145 28.672V28.5806L30.1962 21.5954V17.7554L38.829 12.7634V21.2663L38.8107 33.664L27.2332 40.32L20.594 44.1417L20.6123 34.3223ZM20.6123 32.9874V23.2777L29.1171 18.3771V28.1051L20.6123 32.9874Z" fill="#FEFBFB"/>
<path d="M19.7706 2.43185C19.5145 2.46842 19.295 2.63299 19.1853 2.85242C19.0756 3.10842 19.0939 3.3827 19.2219 3.56556C19.3682 3.78499 19.606 3.91299 19.8803 3.91299C19.9294 3.90959 19.9782 3.90349 20.0266 3.8947C20.3376 3.85813 20.5753 3.6387 20.6302 3.36442C20.6682 3.24454 20.673 3.1166 20.644 2.99423C20.615 2.87186 20.5534 2.75965 20.4656 2.66956C20.3799 2.57366 20.2709 2.50143 20.1492 2.4598C20.0275 2.41816 19.8971 2.40854 19.7706 2.43185ZM20.2644 5.63185C19.9901 5.48556 19.6791 5.50385 19.4597 5.65013C19.2585 5.75985 19.1304 5.97927 19.0939 6.21699C19.0756 6.47299 19.1853 6.69242 19.3316 6.82042C19.4022 6.88756 19.4854 6.93994 19.5765 6.97448C19.6676 7.00902 19.7647 7.02503 19.862 7.02156C19.9756 7.01964 20.0876 6.99476 20.1912 6.94842C20.4839 6.8387 20.6485 6.56442 20.6485 6.29013C20.6668 6.03413 20.5022 5.77813 20.2644 5.63185ZM20.2827 8.77699C20.0266 8.61242 19.7157 8.61242 19.4779 8.74042C19.2585 8.85013 19.1121 9.06956 19.0939 9.32556C19.0756 9.58156 19.1853 9.85585 19.3865 9.98385C19.5237 10.0853 19.6915 10.1369 19.862 10.1301C19.9756 10.1282 20.0876 10.1033 20.1912 10.057C20.3156 10.0073 20.4234 9.92358 20.5024 9.81546C20.5814 9.70734 20.6284 9.57917 20.6379 9.44562C20.6475 9.31207 20.6192 9.17853 20.5564 9.06028C20.4936 8.94204 20.3987 8.84386 20.2827 8.77699ZM7.86386 29.2753C7.58951 29.3484 7.38832 29.5678 7.33345 29.8421C7.27858 30.1347 7.37003 30.409 7.57122 30.5736C7.698 30.6831 7.86093 30.7418 8.02847 30.7381C8.08386 30.7384 8.1391 30.7323 8.19307 30.7198C8.43084 30.665 8.63203 30.5004 8.70519 30.2993C8.83322 30.0433 8.79664 29.7324 8.57716 29.4947C8.49288 29.3922 8.38032 29.3168 8.2535 29.2778C8.12667 29.2388 7.99118 29.2379 7.86386 29.2753ZM31.4944 30.7564C31.5568 30.7532 31.6184 30.7409 31.6773 30.7198C31.9151 30.665 32.1163 30.5004 32.1711 30.3176C32.2992 30.0433 32.2443 29.7141 32.0431 29.4764C31.9509 29.3741 31.831 29.3006 31.6979 29.2649C31.5649 29.2292 31.4243 29.2328 31.2932 29.2753C31.0372 29.3484 30.836 29.5678 30.7811 29.8421C30.7262 30.1347 30.836 30.409 31.0372 30.5736C31.1469 30.7016 31.3115 30.7564 31.4944 30.7564ZM5.19353 30.8478C4.91918 30.9393 4.73628 31.1953 4.71799 31.4878C4.68141 31.7987 4.82773 32.0913 5.0655 32.2193C5.1748 32.2893 5.30151 32.3273 5.4313 32.329C5.53892 32.3267 5.64486 32.3017 5.74223 32.2558C5.98 32.1461 6.14461 31.9267 6.1629 31.7256C6.21777 31.4513 6.10803 31.1587 5.88855 30.9758C5.79685 30.8907 5.68277 30.8334 5.55967 30.8107C5.43658 30.7881 5.30957 30.8009 5.19353 30.8478ZM34.0916 32.3107C34.1784 32.3142 34.2652 32.3018 34.3476 32.2741C34.6037 32.1827 34.7866 31.9633 34.8049 31.7438C34.878 31.4696 34.8049 31.1953 34.5854 30.9941C34.49 30.9027 34.3705 30.8404 34.2409 30.8145C34.1113 30.7886 33.977 30.8002 33.8538 30.8478C33.7304 30.8989 33.6219 30.9805 33.5388 31.085C33.4556 31.1895 33.4005 31.3135 33.3785 31.4452C33.3565 31.577 33.3685 31.7121 33.4133 31.8379C33.458 31.9638 33.5341 32.0761 33.6343 32.1644C33.7659 32.2632 33.927 32.3148 34.0916 32.3107ZM3.18164 32.4753C2.96216 32.3473 2.68782 32.3473 2.48663 32.4753C2.24886 32.6033 2.10254 32.841 2.10254 33.1336C2.10254 33.4261 2.24886 33.6821 2.48663 33.7918C2.58605 33.8516 2.69985 33.8832 2.81585 33.8833C2.95765 33.8855 3.09717 33.8474 3.21822 33.7736C3.45599 33.609 3.58402 33.3347 3.56573 33.097C3.56573 32.841 3.41941 32.6033 3.18164 32.457V32.4753ZM36.2681 33.7187C36.3892 33.8255 36.5455 33.8841 36.707 33.8833C36.8012 33.8833 36.8944 33.8646 36.9814 33.8284C37.2374 33.7187 37.4203 33.4627 37.4386 33.2433C37.4935 32.9507 37.3655 32.6581 37.1094 32.4936C36.8716 32.329 36.579 32.329 36.3595 32.4753C36.2523 32.541 36.1628 32.6321 36.0991 32.7405C36.0353 32.8489 35.9991 32.9713 35.9937 33.097C35.9754 33.353 36.0852 33.5907 36.2681 33.7187Z" fill="#FEFBFB"/>
</g>
<defs>
<linearGradient id="paint0_linear_95_42" x1="28.1807" y1="12.1298" x2="20.0279" y2="26.9577" gradientUnits="userSpaceOnUse">
<stop offset="0.0001" stop-color="#00A3FF"/>
<stop offset="1" stop-color="#0054C6"/>
</linearGradient>
<linearGradient id="paint1_linear_95_42" x1="19.4363" y1="18.1302" x2="6.58967" y2="26.2259" gradientUnits="userSpaceOnUse">
<stop offset="0.0001" stop-color="#00A3FF"/>
<stop offset="1" stop-color="#0054C6"/>
</linearGradient>
<linearGradient id="paint2_linear_95_42" x1="29.1324" y1="18.1374" x2="16.2173" y2="26.1458" gradientUnits="userSpaceOnUse">
<stop offset="0.0001" stop-color="#00A3FF"/>
<stop offset="1" stop-color="#0054C6"/>
</linearGradient>
<clipPath id="clip0_95_42">
<rect width="40" height="45.7143" fill="white"/>
</clipPath>
</defs>
</svg>
